<svg width="80" height="80" viewBox="0 0 80 80" fill="none" xmlns="http://www.w3.org/2000/svg">
<rect width="80" height="80" rx="39" fill="#A9CE5A"/>
<path d="M28.2871 61.9314C26.2132 61.9314 24.3236 60.5371 23.8167 58.4571L17.8484 34.4343C17.2493 31.9886 18.7471 29.4971 21.2128 28.9028C23.0102 28.4686 24.8076 29.1314 25.9137 30.48C26.8354 28.72 27.9645 27.12 29.2549 25.7028C30.1997 24.6743 31.6976 23.28 33.9789 22.9143C36.3523 22.5485 39.348 23.4171 41.4219 26.6857C42.8736 24.6971 44.8323 23.4171 47.1827 23.0057C51.0771 22.2743 55.2249 24.3314 57.5062 28.08C59.1654 30.8 59.5801 33.7714 59.9258 36.1486L62.5988 54.96C62.9445 57.4514 61.1932 59.76 58.6815 60.1257C56.1467 60.4685 53.8423 58.7314 53.4736 56.24L50.8006 37.4286C50.5471 35.7143 50.3166 33.9314 49.6253 32.8114C49.3949 32.4228 49.0723 32.1714 48.888 32.08C48.6115 32.4457 47.9893 33.6114 47.7358 36.0571C47.1597 41.8857 47.1366 47.8057 47.6666 53.6343C47.8971 56.1257 46.0767 58.32 43.588 58.5943C41.0993 58.8685 38.841 57.1086 38.5184 54.64C37.6197 47.7143 36.698 40.56 34.578 33.9543C32.7806 36.9028 32.1354 40.3086 31.951 42.8686C31.5823 47.3714 32.2736 52.1486 32.9188 56.7657C33.2645 59.1657 31.6284 61.4285 29.2318 61.8857C28.8632 61.9085 28.5867 61.9314 28.2871 61.9314Z" fill="white"/>
<path d="M28.287 58.5028C26.7662 58.4114 26.5588 55.1885 26.3053 54.1143C25.4988 50.8914 24.7153 47.6914 23.9087 44.4685C23.1713 41.4971 22.434 38.5257 21.6966 35.5542C21.5583 34.9599 21.2357 34.2285 21.2127 33.6114C21.1666 32.1028 22.5261 31.8971 23.4709 32.8799C24.9687 34.4571 27.8722 34.0914 28.9092 32.1943C30.7757 28.7657 34.9235 23.3028 38.4492 28.4C39.5552 30 42.4127 30.96 43.8875 29.0857C46.1918 26.16 49.6944 25.2914 52.7592 27.7371C55.5936 29.9999 56.1235 33.7942 56.6074 37.1314C57.1835 41.2228 57.7596 45.3143 58.3357 49.4057C58.6122 51.3257 58.9579 53.2685 59.1653 55.2114C59.1883 55.3714 59.2344 55.5543 59.2344 55.6914C59.2344 55.7371 59.3957 55.5542 59.0962 55.92C58.451 56.7657 57.4601 56.9942 56.9301 55.8514C56.4462 54.8 56.5153 53.1542 56.354 52.0571C56.0083 49.5428 55.6397 47.0514 55.294 44.5371C54.6257 39.76 54.764 32.08 50.6392 29.04C49.0492 27.8742 46.8831 28.8799 45.9153 30.2742C43.8183 33.2457 44.0488 37.9543 43.9105 41.4057C43.8184 43.92 43.8184 46.4342 43.9105 48.9485C43.9566 50.2057 44.0487 51.4628 44.1409 52.72C44.187 53.4057 44.4405 54.2057 43.9105 54.7542C43.1962 55.4857 42.3436 54.9828 41.9749 54.2285C41.5371 53.3828 41.6292 51.8971 41.514 50.9142C41.3527 49.6799 41.1683 48.4228 41.007 47.1885C40.2927 42.3657 39.394 37.5885 37.9192 32.9485C37.0436 30.2057 33.1031 29.4971 31.6053 32.1257C29.0475 36.6057 28.241 41.7028 28.4253 46.8C28.5175 49.4285 28.8401 52.0571 29.1857 54.6628C29.2779 55.9199 30.0844 58.4114 28.287 58.5028C23.8627 58.7085 23.8397 65.5657 28.287 65.36C30.9831 65.2228 33.5179 64.0342 35.0157 61.7485C36.767 59.0971 36.237 56.3999 35.8453 53.4514C35.0849 47.5542 34.4166 41.0399 37.4814 35.6685C35.3844 35.3942 33.2644 35.1199 31.1675 34.8457C32.9649 40.4914 33.9097 46.3428 34.6931 52.1943C35.0618 54.9371 35.2231 57.5885 37.297 59.6457C39.2326 61.5657 42.0901 62.3885 44.7631 61.8171C47.2518 61.2685 49.3488 59.5542 50.3857 57.2457C51.561 54.6171 50.8927 51.76 50.7774 48.9942C50.6392 45.9314 50.6622 42.8457 50.8466 39.7828C50.9618 37.8857 51.054 34.8914 51.8144 33.7943C50.2475 34.2057 48.6574 34.6171 47.0905 35.0285C46.2839 34.4342 47.0214 35.8514 47.0675 36.1485C47.2057 36.7428 47.2749 37.3599 47.367 37.9542C47.3901 38.1828 47.4361 38.4114 47.4592 38.64C47.5744 39.4857 47.6896 40.3314 47.8279 41.1771C48.2427 44.08 48.6574 46.9828 49.0492 49.8857C49.3718 52.1485 49.6483 54.4342 50.017 56.6971C50.6392 60.5599 53.9344 63.6457 57.9901 63.6C63.2209 63.5542 66.5392 58.9371 65.871 54.0457C65.6175 52.24 65.364 50.4571 65.1105 48.6514C64.4422 43.9885 63.8201 39.3028 63.1288 34.64C62.2992 29.0171 59.8566 23.3257 54.3722 20.7885C48.98 18.2742 42.6431 19.5771 38.9561 24.2857C40.7766 24.5142 42.574 24.7428 44.3944 24.9714C41.7214 21.1085 37.5505 18.64 32.7114 19.6914C28.1487 20.6971 25.0379 24.9028 22.9179 28.7428C24.7383 28.5142 26.5357 28.2857 28.3562 28.0571C23.9779 23.3942 15.7514 25.2914 14.4379 31.7142C13.954 34.0914 14.8066 36.4914 15.3596 38.7771C16.9266 45.0857 18.4936 51.3942 20.0605 57.7028C21.1205 61.9314 23.5401 65.04 28.287 65.36C32.7344 65.6571 32.7114 58.8 28.287 58.5028Z" fill="black"/>
<path d="M22.3186 33.3372C24.3003 41.3372 26.3052 49.3601 28.2869 57.3601C27.5956 52.4229 26.8812 47.4401 27.296 42.4572C27.6877 37.4743 29.2778 32.4687 32.6652 28.7658C33.2182 28.1487 33.8865 27.5544 34.693 27.4401C36.4904 27.1658 37.7347 29.1544 38.3338 30.8687C41.0069 38.2972 42.0208 46.2058 43.0347 54.0229C42.4587 47.8972 42.4817 41.7029 43.1039 35.5772C43.4495 32.2172 44.6478 28.1029 47.9891 27.5087C50.1782 27.0972 52.3673 28.5601 53.5195 30.4572C54.6717 32.3543 54.9943 34.5944 55.3169 36.7886C56.2156 43.0515 57.0912 49.3372 57.9899 55.6001" fill="black"/>
<path d="M19.1183 34.3863C21.1 42.3863 23.1048 50.4091 25.0865 58.4091C25.5243 60.2148 27.5752 61.2891 29.3495 60.8091C31.3312 60.2606 32.0226 58.432 31.7691 56.5806C31.1008 51.7806 30.4556 46.8891 30.9395 42.0206C31.3543 37.9291 32.8752 34.6149 35.2487 31.3234C35.6865 30.7063 35.7556 31.1863 35.2256 30.8891C34.88 30.9806 34.6034 30.912 34.35 30.6377C34.4652 30.752 34.5574 30.8434 34.6726 30.9577C35.0183 31.712 35.3178 32.352 35.5943 33.152C36.3548 35.4377 36.977 37.7691 37.4839 40.1234C38.4978 44.7634 39.143 49.4491 39.7421 54.1577C39.9726 55.9863 41.1708 57.5863 43.1987 57.5863C44.95 57.5863 46.8165 56.0091 46.6552 54.1577C46.1943 49.0377 46.1252 43.8948 46.4709 38.7748C46.6091 36.832 46.6782 34.8663 47.3235 33.0148C47.6 32.2148 48.153 31.0949 48.6599 31.0034C52.0473 30.3863 52.3008 38.8206 52.5543 40.6034C53.3147 45.952 54.0752 51.2777 54.8126 56.6263C55.0661 58.4548 57.4396 59.4606 59.0756 59.0263C61.0574 58.4777 61.7487 56.6491 61.4952 54.7977C60.5734 48.3291 59.7208 41.8377 58.753 35.392C57.9465 29.952 54.7434 23.552 48.1761 24.192C42.5304 24.7405 40.4334 30.432 39.8804 35.2549C39.143 41.5177 39.2122 47.872 39.7652 54.1348C42.0695 54.1348 44.3739 54.1348 46.6782 54.1348C45.8487 47.7577 45.0652 41.312 43.406 35.0948C42.1847 30.5234 39.3965 21.3348 32.6448 24.7406C30.2252 25.952 28.4508 28.6034 27.2295 30.9349C25.9161 33.4034 24.9943 36.1006 24.5104 38.8434C23.3352 45.3806 24.2339 51.9177 25.1556 58.432C27.3678 57.8149 29.603 57.2206 31.8152 56.6034C29.8334 48.6034 27.8287 40.5806 25.8469 32.5806C24.7178 28.2834 18.0352 30.0891 19.1183 34.3863Z" fill="white"/>
</svg>
