<svg width="33" height="32" viewBox="0 0 33 32" fill="none" xmlns="http://www.w3.org/2000/svg">
<rect x="1.28983" y="0.5" width="31.1051" height="31" rx="15.5" fill="#D5D5D5" fill-opacity="0.47" stroke="#9C9C9C"/>
<path d="M23.8654 16H17.8457V10C17.8457 9.73478 17.74 9.48043 17.5518 9.29289C17.3637 9.10536 17.1085 9 16.8424 9C16.5763 9 16.3211 9.10536 16.1329 9.29289C15.9448 9.48043 15.8391 9.73478 15.8391 10V16H9.81939C9.5533 16 9.29811 16.1054 9.10996 16.2929C8.9218 16.4804 8.8161 16.7348 8.8161 17C8.8161 17.2652 8.9218 17.5196 9.10996 17.7071C9.29811 17.8946 9.5533 18 9.81939 18H15.8391V24C15.8391 24.2652 15.9448 24.5196 16.1329 24.7071C16.3211 24.8946 16.5763 25 16.8424 25C17.1085 25 17.3637 24.8946 17.5518 24.7071C17.74 24.5196 17.8457 24.2652 17.8457 24V18H23.8654C24.1314 18 24.3866 17.8946 24.5748 17.7071C24.7629 17.5196 24.8686 17.2652 24.8686 17C24.8686 16.7348 24.7629 16.4804 24.5748 16.2929C24.3866 16.1054 24.1314 16 23.8654 16Z" fill="#9C9C9C"/>
</svg>
