<svg width="320" height="65" viewBox="0 0 320 65" fill="none" xmlns="http://www.w3.org/2000/svg">
<rect width="320" height="65" rx="32.5" fill="#A9CE5A"/>
<path d="M89.4692 46.3105C88.4706 46.3105 87.472 46.2222 86.4734 46.0278C80.5889 44.8971 75.7921 40.3566 74.5438 34.7208C73.2421 28.8022 76.2557 22.3183 81.5875 19.6506C84.4406 18.2195 87.9535 18.0605 90.9849 19.2089C93.5884 20.1983 95.5499 22.071 96.4771 24.4738C97.1548 26.2051 97.1369 27.8835 96.4237 29.3323C95.1754 31.894 92.3936 32.477 91.3594 32.7067L82.5504 34.5794C82.3721 34.6148 82.1938 34.6501 82.0154 34.6501C83.0854 36.8409 85.3322 38.6076 87.8286 39.0846C90.8957 39.6676 94.373 38.5016 96.6555 36.0812C98.0107 34.6501 100.258 34.5971 101.702 35.9222C103.129 37.2649 103.2 39.4909 101.862 40.922C98.5992 44.3671 94.052 46.3105 89.4692 46.3105ZM86.7944 25.5161C86.0811 25.5161 85.3857 25.6575 84.7972 25.9578C84.1909 26.2581 83.6381 26.6998 83.1745 27.2122L88.8629 26.0108C88.7203 25.9225 88.5598 25.8695 88.435 25.8165C87.9357 25.6221 87.365 25.5161 86.7944 25.5161Z" fill="white"/>
<path d="M89.4692 43.6604C84.5119 43.5897 79.8934 40.816 77.8427 36.2755C75.9882 32.1944 77.0046 27.1592 80.1431 23.9791C83.4598 20.6047 89.7902 19.8096 93.0356 23.7848C94.2839 25.3218 94.9971 27.8483 93.1782 29.2086C92.3758 29.8093 91.3237 30.0213 90.1825 30.251C88.5241 30.6043 86.8658 30.9577 85.2074 31.311C84.3871 31.4877 83.5847 31.6644 82.7644 31.8234C82.6396 31.8587 81.6053 32.0354 82.0154 32.0001C79.9648 32.1944 78.7165 34.0848 79.6973 35.9928C83.3172 42.9714 92.6433 43.4837 98.0999 38.4132C98.617 37.9362 99.366 37.1412 99.9901 38.0246C100.632 38.9609 99.1342 39.915 98.51 40.4273C95.9779 42.4944 92.7503 43.6074 89.4692 43.6604C86.0276 43.7134 86.0276 49.0136 89.4692 48.9606C93.7132 48.9076 97.8503 47.5472 101.238 44.9855C102.986 43.6781 104.733 42.1764 105.304 40.0033C105.875 37.8303 105.108 35.4275 103.432 33.9434C101.791 32.4947 99.4552 31.9471 97.351 32.6361C95.3895 33.2721 94.3017 35.0035 92.5007 35.8868C89.3979 37.3886 85.9206 36.3992 84.3158 33.3251C83.549 34.6502 82.7822 35.9752 81.9976 37.3179C85.2965 36.9999 88.6133 36.0105 91.8587 35.3215C94.052 34.8445 96.2097 33.9611 97.6898 32.2121C100.293 29.1203 100.097 24.7211 97.8859 21.4704C93.6241 15.1455 84.2979 14.1385 78.2885 18.5906C72.9033 22.5834 70.2998 29.721 72.1187 36.1872C74.2585 43.8195 81.5875 48.8546 89.4336 48.9783C92.9286 49.0136 92.9286 43.7134 89.4692 43.6604Z" fill="#0E0F0F"/>
<path d="M86.7944 22.8662C84.6724 22.8838 82.7109 23.7848 81.2843 25.3396C80.8742 25.7812 80.6245 26.276 80.5532 26.859C80.4819 27.4243 80.5532 28.0603 80.8742 28.555C81.1238 28.9437 81.4448 29.2617 81.8371 29.5091C82.4434 29.8977 83.228 29.9154 83.9056 29.7741C85.564 29.4207 87.2224 29.0674 88.8808 28.714C89.1126 28.661 89.3622 28.608 89.594 28.555C89.808 28.4667 90.022 28.3784 90.236 28.29C90.4143 28.1487 90.5926 28.0073 90.771 27.8836C91.1811 27.4773 91.4307 26.9296 91.5021 26.3643C91.6447 25.3573 91.1633 24.2265 90.2182 23.7318C89.1661 23.1488 88.007 22.8838 86.7944 22.8662C86.1168 22.8662 85.3857 23.1665 84.9042 23.6435C84.4406 24.1029 84.0839 24.8626 84.1196 25.5162C84.1553 26.2053 84.3693 26.912 84.9042 27.389C85.4392 27.866 86.0633 28.1663 86.7944 28.1663C87.0084 28.1663 87.2224 28.184 87.4364 28.2016C87.2046 28.1663 86.9549 28.131 86.7231 28.1133C87.0975 28.1663 87.4542 28.2547 87.8108 28.396C87.5969 28.3077 87.3828 28.2194 87.1689 28.131C87.2937 28.184 87.4007 28.237 87.5255 28.29C87.7395 26.6823 87.9535 25.0569 88.1674 23.4491C86.5091 23.8025 84.8507 24.1558 83.1923 24.5092C82.9605 24.5622 82.7109 24.6152 82.4791 24.6682C83.3528 26.1522 84.2088 27.6186 85.0825 29.1027C85.3144 28.8377 85.564 28.608 85.8493 28.396C85.671 28.5374 85.4927 28.6787 85.3144 28.8024C85.6532 28.5374 86.0276 28.3077 86.4377 28.131C86.2238 28.2194 86.0098 28.3077 85.7958 28.396C86.1346 28.2723 86.4734 28.184 86.83 28.131C86.5982 28.1664 86.3486 28.2017 86.1168 28.2193C86.3486 28.184 86.5804 28.1663 86.8122 28.1663C87.5077 28.1663 88.221 27.8837 88.7024 27.389C89.1661 26.9296 89.5227 26.1699 89.487 25.5162C89.4157 24.1029 88.2923 22.8485 86.7944 22.8662Z" fill="#0E0F0F"/>
<path d="M81.7837 31.364C84.6903 30.6396 87.6147 29.8976 90.5213 29.1733C91.5199 28.9259 92.6612 28.5726 93.0713 27.6185C93.3566 26.9825 93.214 26.2228 92.9287 25.5691C91.3951 22.018 86.2773 21.117 82.8536 22.9897C78.9662 25.1275 77.0047 30.0743 78.1103 34.3321C79.2159 38.5899 83.1567 41.9113 87.5612 42.5827C91.9479 43.2541 96.5842 41.399 99.5087 38.0776" fill="#0E0F0F"/>
<path d="M82.4969 33.9257C85.5818 33.1484 88.7381 32.5123 91.7874 31.576C93.1604 31.152 94.4978 30.4629 95.2468 29.2086C96.2275 27.5832 95.9601 25.6221 95.122 24.0144C92.786 19.4386 86.6161 18.4492 82.2294 20.3926C77.5218 22.4597 74.7222 27.9365 75.1858 32.9187C75.6851 38.2895 79.5011 42.671 84.5119 44.5437C90.3787 46.7521 97.2975 44.5261 101.399 39.9856C102.362 38.9255 102.469 37.2825 101.399 36.2401C100.418 35.2684 98.5814 35.1624 97.6185 36.2401C96.4237 37.5652 94.9437 38.6782 93.3744 39.2965C91.6626 39.9856 89.9685 40.2506 88.2388 40.0386C85.1717 39.6852 82.1581 37.4061 81.0704 34.7737C79.8578 31.841 80.5532 28.5372 82.7644 26.3642C83.1032 26.0285 83.228 25.9225 83.4598 25.7635C83.7808 25.5515 84.1018 25.3571 84.4406 25.1804C84.9221 24.9331 84.6546 25.0921 84.5297 25.1274C84.7437 25.0391 84.9577 24.9861 85.1717 24.9154C85.3857 24.8624 85.5997 24.8094 85.8315 24.7564C86.2951 24.6504 85.778 24.7387 86.0633 24.7211C86.4734 24.7034 86.8657 24.7034 87.2759 24.7034C87.793 24.7034 87.5077 24.7211 87.3651 24.7034C87.5434 24.7211 87.7217 24.7741 87.8822 24.8094C88.0962 24.8624 88.3101 24.9331 88.5241 24.9861C88.6311 25.0215 89.1482 25.2334 88.7381 25.0568C88.8986 25.1274 89.0413 25.2158 89.2018 25.2864C89.2909 25.3394 89.8972 25.7281 89.5049 25.4454C89.6297 25.5514 89.7724 25.6751 89.8794 25.7811C89.915 25.8165 90.3965 26.3995 90.1112 26.0108C90.236 26.1698 90.6996 26.8412 90.5748 26.9472C90.5213 27.0002 90.6283 26.5055 90.6283 26.5232C90.6818 26.1345 91.0028 26.4878 90.5392 26.4172C90.7353 26.4525 90.5035 26.4172 90.3608 26.4525C90.0398 26.5408 89.7189 26.6292 89.4157 26.6999C86.6339 27.4065 83.8522 28.0956 81.0704 28.8023C77.7358 29.6503 79.1445 34.7561 82.4969 33.9257Z" fill="white"/>
<path d="M109.744 47.3529C108.139 47.3529 106.677 46.2752 106.285 44.6675L101.666 26.0992C101.203 24.2088 102.362 22.2831 104.27 21.8237C105.661 21.4881 107.052 22.0004 107.89 23.0428C108.603 21.6824 109.477 20.4457 110.475 19.3503C111.189 18.5553 112.366 17.4776 114.131 17.1949C115.985 16.9122 118.286 17.5836 119.891 20.11C121.014 18.573 122.53 17.6012 124.349 17.2656C127.362 16.7002 130.572 18.2903 132.337 21.1877C133.621 23.2901 133.942 25.5868 134.21 27.4242L136.278 41.9644C136.546 43.8901 135.19 45.6922 133.247 45.9572C131.303 46.2222 129.484 44.8795 129.217 42.9538L127.148 28.4136C126.952 27.0886 126.774 25.7105 126.239 24.8448C126.06 24.5445 125.811 24.3501 125.668 24.2795C125.454 24.5621 124.973 25.4632 124.777 27.3536C124.313 31.8587 124.313 36.4346 124.723 40.9397C124.901 42.8654 123.493 44.5615 121.567 44.7735C119.641 44.9855 117.893 43.6251 117.644 41.7171C116.948 36.3639 116.235 30.8164 114.577 25.7459C113.186 28.0249 112.704 30.6574 112.544 32.6361C112.259 36.1165 112.794 39.809 113.293 43.3778C113.56 45.2329 112.294 46.9819 110.44 47.3352C110.19 47.3352 109.958 47.3529 109.744 47.3529Z" fill="white"/>
<path d="M109.744 44.7028C108.567 44.6321 108.407 42.141 108.211 41.3107C107.587 38.8196 106.98 36.3462 106.356 33.8551C105.785 31.5583 105.215 29.2616 104.644 26.9649C104.537 26.5055 104.288 25.9402 104.27 25.4631C104.234 24.2971 105.286 24.1381 106.017 24.8978C107.176 26.1168 109.405 25.8342 110.226 24.3678C111.688 21.7177 114.88 17.4776 117.608 21.435C118.464 22.6717 120.675 23.4137 121.816 21.965C123.6 19.7036 126.31 19.0323 128.682 20.9227C130.875 22.6717 131.285 25.6045 131.66 28.1839C132.106 31.3463 132.551 34.5088 132.997 37.6712C133.211 39.1553 133.479 40.657 133.639 42.1587C133.657 42.2824 133.693 42.4237 133.693 42.5297C133.693 42.565 133.817 42.4237 133.586 42.724C133.086 43.3777 132.319 43.5544 131.909 42.671C131.535 41.8583 131.588 40.5863 131.464 39.7382C131.196 37.7948 130.911 35.8692 130.643 33.9258C130.126 30.2333 130.233 24.3148 127.041 21.9474C125.829 21.0464 124.135 21.8413 123.386 22.9014C121.763 25.2158 121.941 28.8376 121.834 31.5054C121.763 33.4488 121.763 35.3921 121.834 37.3355C121.87 38.3072 121.941 39.2789 122.013 40.2506C122.048 40.7806 122.244 41.399 121.834 41.823C121.281 42.3884 120.622 41.9997 120.336 41.4167C119.998 40.7453 120.069 39.5969 119.98 38.8549C119.855 37.8832 119.712 36.9292 119.587 35.9752C119.035 32.2474 118.339 28.5726 117.198 24.9685C116.52 22.8484 113.471 22.3007 112.312 24.3324C110.333 27.7952 109.709 31.735 109.851 35.6748C109.922 37.7065 110.172 39.7383 110.44 41.7523C110.511 42.7064 111.135 44.6321 109.744 44.7028C106.32 44.8618 106.303 50.162 109.744 50.0029C111.831 49.8969 113.792 48.9782 114.951 47.2115C116.306 45.1621 115.896 43.0774 115.593 40.7983C115.005 36.2401 114.488 31.205 116.859 27.0532C115.236 26.8412 113.596 26.6292 111.973 26.4172C113.364 30.781 114.095 35.3038 114.701 39.8266C114.987 41.9467 115.112 43.9961 116.716 45.5861C118.214 47.0702 120.426 47.7062 122.494 47.2645C124.42 46.8405 126.043 45.5154 126.845 43.7311C127.754 41.6993 127.237 39.4909 127.148 37.3532C127.041 34.9858 127.059 32.6007 127.202 30.2333C127.291 28.7669 127.362 26.4525 127.951 25.6045C126.738 25.9225 125.508 26.2405 124.295 26.5585C123.671 26.0992 124.242 27.1945 124.277 27.4242C124.384 27.8835 124.438 28.3606 124.509 28.8199C124.527 28.9966 124.563 29.1733 124.58 29.35C124.67 30.0036 124.759 30.6573 124.866 31.311C125.187 33.5547 125.508 35.7985 125.811 38.0422C126.06 39.7913 126.274 41.558 126.56 43.3071C127.041 46.2928 129.591 48.6779 132.73 48.6425C136.778 48.5895 139.345 45.0384 138.828 41.2577C138.632 39.8619 138.436 38.4839 138.24 37.0882C137.723 33.484 137.241 29.8623 136.706 26.2582C136.064 21.9121 134.174 17.5129 129.93 15.5519C125.757 13.6085 120.871 14.5978 118 18.2549C119.409 18.4316 120.8 18.6083 122.209 18.7849C120.14 15.7992 116.913 13.8911 113.168 14.7038C109.619 15.4812 107.23 18.7319 105.589 21.7C106.998 21.5233 108.389 21.3467 109.798 21.17C106.41 17.5659 100.044 19.0323 99.0272 23.9968C98.6527 25.8342 99.3125 27.6892 99.7404 29.456C100.953 34.3321 102.166 39.2083 103.378 44.0844C104.198 47.3529 106.071 49.7556 109.744 50.0029C113.186 50.2326 113.168 44.9325 109.744 44.7028Z" fill="#0E0F0F"/>
<path d="M115.95 21.2583C115.575 21.2407 115.236 21.329 114.915 21.488C114.577 21.594 114.291 21.7707 114.06 22.0357C113.792 22.283 113.614 22.5657 113.507 22.8837C113.346 23.2018 113.257 23.5374 113.275 23.9084C113.311 24.1381 113.346 24.3854 113.364 24.6151C113.489 25.0568 113.721 25.4455 114.06 25.7812C114.238 25.9225 114.416 26.0639 114.595 26.1875C115.005 26.4349 115.468 26.5408 115.95 26.5408C116.324 26.5585 116.663 26.4702 116.984 26.3112C117.323 26.2052 117.608 26.0285 117.84 25.7635C118.107 25.5162 118.286 25.2335 118.393 24.9155C118.553 24.5975 118.642 24.2618 118.625 23.8907C118.589 23.6611 118.553 23.4137 118.535 23.1841C118.411 22.7424 118.179 22.3537 117.84 22.018C117.662 21.8767 117.483 21.7354 117.305 21.6117C116.877 21.382 116.431 21.2583 115.95 21.2583C115.575 21.2407 115.236 21.329 114.915 21.488C114.577 21.594 114.291 21.7707 114.06 22.0357C113.792 22.283 113.614 22.5657 113.507 22.8837C113.346 23.2018 113.257 23.5374 113.275 23.9084C113.311 24.1381 113.346 24.3854 113.364 24.6151C113.489 25.0568 113.721 25.4455 114.06 25.7812C114.238 25.9225 114.416 26.0639 114.595 26.1875C115.005 26.4349 115.468 26.5408 115.95 26.5408C116.324 26.5585 116.663 26.4702 116.984 26.3112C117.323 26.2052 117.608 26.0285 117.84 25.7635C118.107 25.5162 118.286 25.2335 118.393 24.9155C118.553 24.5975 118.642 24.2618 118.625 23.8907C118.589 23.6611 118.553 23.4137 118.535 23.1841C118.411 22.7424 118.179 22.3537 117.84 22.018C117.662 21.8767 117.483 21.7354 117.305 21.6117C116.877 21.382 116.431 21.2583 115.95 21.2583Z" fill="#0E0F0F"/>
<path d="M102.54 25.9578C104.074 32.1413 105.625 38.3425 107.159 44.5261C107.497 45.9218 109.084 46.7521 110.457 46.3811C111.991 45.9571 112.526 44.5437 112.33 43.1127C111.813 39.4026 111.313 35.6218 111.688 31.8586C112.009 28.6962 113.186 26.1345 115.022 23.5904C115.361 23.1134 115.415 23.4844 115.005 23.2547C114.737 23.3254 114.523 23.2724 114.327 23.0604C114.416 23.1487 114.488 23.2194 114.577 23.3077C114.844 23.8907 115.076 24.3854 115.29 25.0038C115.878 26.7705 116.36 28.5726 116.752 30.3923C117.537 33.9787 118.036 37.6005 118.5 41.2399C118.678 42.6533 119.605 43.89 121.175 43.89C122.53 43.89 123.974 42.671 123.849 41.2399C123.493 37.2825 123.439 33.3074 123.707 29.3499C123.814 27.8482 123.867 26.3288 124.366 24.8978C124.58 24.2794 125.008 23.4137 125.401 23.343C128.022 22.866 128.218 29.3852 128.414 30.7633C129.003 34.8974 129.591 39.0139 130.162 43.148C130.358 44.5614 132.195 45.3388 133.461 45.0031C134.994 44.5791 135.529 43.1657 135.333 41.7346C134.62 36.7348 133.96 31.7173 133.211 26.7352C132.587 22.5304 130.108 17.5835 125.026 18.0782C120.657 18.5022 119.035 22.9014 118.607 26.6292C118.036 31.47 118.09 36.3815 118.518 41.2223C120.301 41.2223 122.084 41.2223 123.867 41.2223C123.225 36.2932 122.619 31.311 121.335 26.5055C120.39 22.972 118.232 15.8698 113.007 18.5022C111.135 19.4386 109.762 21.488 108.817 23.29C107.801 25.1981 107.087 27.2829 106.713 29.4029C105.803 34.4558 106.499 39.5085 107.212 44.5437C108.924 44.0667 110.654 43.6074 112.366 43.1304C110.832 36.9468 109.281 30.7456 107.747 24.5621C106.873 21.2406 101.72 22.6364 102.54 25.9578Z" fill="white"/>
<path d="M178.504 43.4661C177.078 43.4661 175.651 43.2717 174.278 42.883C170.052 41.6817 166.129 37.9716 166.824 33.2367C166.896 32.742 167.038 32.159 167.306 31.523C166.343 30.6043 165.933 29.1909 166.379 27.8482C168.483 21.6294 174.332 17.0359 180.93 16.4175C185.352 16.0112 189.4 17.5129 191.771 20.4633C193.251 22.3007 194.09 24.7035 194.197 27.4066C194.393 32.2827 192.11 37.1765 188.223 40.1976C185.477 42.3354 181.982 43.4661 178.504 43.4661ZM176.579 25.4278C178.13 25.4632 179.539 26.5232 179.949 28.0956C180.43 29.9859 179.271 31.9117 177.363 32.3887C175.063 32.9718 173.939 33.8374 173.868 34.2615C173.815 34.6501 174.778 35.6925 176.24 36.1165C178.772 36.8409 181.75 36.2579 183.818 34.6501C185.887 33.0424 187.171 30.304 187.064 27.7069C187.01 26.5232 186.707 25.5338 186.19 24.8802C185.352 23.8378 183.533 23.2901 181.571 23.4667C179.77 23.6257 178.041 24.3325 176.579 25.4278Z" fill="white"/>
<path d="M178.504 40.816C173.868 40.7453 167.841 37.6712 169.874 32.212C170.212 31.3286 169.802 30.2862 169.178 29.6326C168.305 28.6962 169.642 26.8412 170.159 25.9755C171.015 24.5444 172.121 23.3254 173.387 22.2477C176.008 20.0392 179.503 18.8556 182.927 18.9969C186.297 19.1382 189.56 20.8696 190.826 24.0851C192.217 27.6008 191.45 31.6996 189.489 34.8444C187.135 38.6605 182.945 40.7629 178.504 40.816C175.063 40.869 175.063 46.1691 178.504 46.1161C184.353 46.0278 189.756 43.4307 193.269 38.7665C196.55 34.4204 197.87 28.3075 196.14 23.0957C194.393 17.7779 189.739 14.4741 184.246 13.8204C179.057 13.202 173.904 15.0571 169.909 18.2549C165.808 21.5587 160.904 28.6079 165.398 33.3781C165.166 32.5124 164.934 31.6643 164.702 30.7986C163.276 34.6147 164.381 38.7489 167.181 41.664C170.123 44.7204 174.314 46.0278 178.487 46.0984C181.946 46.1868 181.946 40.8866 178.504 40.816Z" fill="#0E0F0F"/>
<path d="M176.579 28.0779C177.078 28.0955 176.097 27.9189 176.579 28.0779C176.614 28.0779 177.078 28.1838 177.078 28.2192C177.06 28.3782 176.561 27.9189 176.917 28.1839C176.971 28.2369 177.078 28.2898 177.131 28.3252C177.417 28.4489 176.899 28.2015 176.935 28.1662C176.953 28.1485 177.167 28.3959 177.185 28.4135C177.524 28.7139 176.989 28.0425 177.203 28.4312C177.238 28.5018 177.292 28.5902 177.327 28.6609C177.506 28.9259 177.203 28.4312 177.238 28.4489C177.327 28.4842 177.417 29.2792 177.363 28.8199C177.31 28.3428 177.327 29.1555 177.345 29.1909C177.327 29.1732 177.47 28.6432 177.381 28.9259C177.363 29.0142 177.345 29.1025 177.327 29.1909C177.31 29.2792 177.274 29.3499 177.256 29.4382C177.185 29.7032 177.327 29.2262 177.345 29.2085C177.327 29.2085 176.846 29.8975 177.167 29.5265C177.47 29.1909 176.899 29.7209 176.899 29.7739C176.899 29.7386 177.327 29.4912 177.078 29.6325C177.006 29.6679 176.917 29.7209 176.846 29.7739C176.454 30.0212 177.274 29.6856 176.81 29.7916C176.311 29.9153 175.83 30.0566 175.348 30.2333C173.797 30.7986 171.71 31.735 171.282 33.5193C170.694 35.9751 172.994 37.7065 175.009 38.5015C178.861 40.0209 183.89 38.6428 186.636 35.6571C188.027 34.1554 189.079 32.265 189.471 30.2686C189.899 28.1309 189.863 25.6398 188.615 23.7494C187.224 21.6116 184.585 20.7283 182.106 20.7813C179.646 20.8343 177.167 21.7 175.205 23.1487C174.082 23.9791 173.404 25.4807 174.243 26.7705C174.956 27.8658 176.703 28.6079 177.898 27.7245C178.255 27.4595 178.611 27.2298 178.986 27.0001C179.182 26.8941 179.36 26.7882 179.556 26.6998C179.663 26.6468 180.323 26.3995 179.717 26.6115C180.056 26.4878 180.395 26.3641 180.751 26.2758C180.965 26.2228 181.179 26.1875 181.393 26.1345C181.696 26.0815 181.678 26.0815 181.322 26.1345C181.465 26.1168 181.625 26.0991 181.768 26.0991C182.142 26.0814 182.499 26.0991 182.873 26.0991C183.551 26.1168 182.356 25.9401 182.98 26.1168C183.176 26.1698 183.373 26.2051 183.551 26.2581C183.64 26.2935 184.104 26.5408 183.765 26.3288C183.408 26.0991 183.872 26.3994 183.925 26.4348C183.979 26.4701 184.014 26.4878 184.068 26.5231C184.3 26.6821 184.264 26.6468 183.925 26.3995C183.997 26.4701 184.086 26.5408 184.157 26.6291C183.907 26.2935 183.872 26.2404 184.032 26.4878C184.05 26.5231 184.353 27.0355 184.139 26.6468C183.925 26.2758 184.193 26.8058 184.211 26.8765C184.264 27.0531 184.371 27.3181 184.353 27.4948C184.407 26.8588 184.353 27.5655 184.353 27.6892C184.371 28.0249 184.335 28.3429 184.335 28.6785C184.318 29.3322 184.478 28.1132 184.318 28.7492C184.264 29.0142 184.211 29.2615 184.139 29.5265C184.086 29.7209 184.014 29.8976 183.961 30.0919C183.818 30.5512 183.979 30.0919 184.014 30.0212C183.89 30.3922 183.658 30.7456 183.462 31.0813C183.355 31.2579 183.248 31.4169 183.123 31.5759C182.766 32.1236 183.497 31.1873 183.052 31.6643C182.784 31.947 182.499 32.2296 182.213 32.5123C181.75 32.954 182.677 32.2296 182.124 32.583C181.946 32.689 181.785 32.8127 181.607 32.9187C181.322 33.0953 181.019 33.272 180.698 33.378C181.34 33.1484 180.68 33.3603 180.573 33.3957C180.377 33.4663 180.181 33.5193 179.984 33.5723C179.824 33.6077 179.646 33.643 179.485 33.6783C178.772 33.8197 179.824 33.696 179.271 33.7137C178.861 33.7314 178.451 33.7667 178.041 33.7313C178.005 33.7313 177.327 33.696 177.791 33.7313C178.237 33.7667 177.595 33.696 177.541 33.6783C177.345 33.643 177.149 33.59 176.953 33.537C176.882 33.5194 176.81 33.5017 176.739 33.4663C176.454 33.3603 176.472 33.378 176.81 33.5017C176.686 33.5193 176.418 33.272 176.311 33.219C175.812 32.954 176.668 33.59 176.311 33.219C176.222 33.1307 176.115 33.007 176.026 32.9187C176.115 33.0423 176.204 33.1484 176.311 33.272C176.168 33.0247 176.222 33.166 176.472 33.6607C176.632 34.1907 176.454 35.0917 176.275 35.3744C175.651 36.3814 175.865 35.8338 176.008 35.7277C176.596 35.2861 175.473 36.0104 176.079 35.6748C176.204 35.6041 176.329 35.5334 176.454 35.4628C176.543 35.4274 177.167 35.1801 176.757 35.3038C176.311 35.4451 176.953 35.2331 176.989 35.2331C177.203 35.1624 177.399 35.0918 177.613 35.0388C178.183 34.8798 178.701 34.7207 179.235 34.4734C180.216 34.014 180.983 33.2897 181.607 32.4417C182.962 30.5866 183.034 28.0425 181.999 26.0461C180.947 24.0144 178.825 22.866 176.579 22.76C175.188 22.6893 173.832 24.0321 173.904 25.4101C173.975 26.9118 175.081 27.9895 176.579 28.0779Z" fill="#0E0F0F"/>
<path d="M183.319 58.2359C180.056 58.2359 176.775 57.4938 173.85 56.0804C172.085 55.2147 171.354 53.1124 172.21 51.3456C173.083 49.5966 175.205 48.8722 176.989 49.7203C179.449 50.904 182.285 51.381 184.995 51.063C186.44 50.8863 186.992 50.5506 187.189 50.3563C188.044 49.5259 187.795 46.7875 187.688 45.7451C187.064 39.1199 186.279 32.4064 185.352 25.8165C185.084 23.8907 186.44 22.1063 188.401 21.8413C190.345 21.5763 192.146 22.919 192.413 24.8624C193.341 31.5583 194.143 38.3602 194.785 45.0914C194.999 47.4235 195.463 52.2467 192.146 55.4268C190.63 56.8755 188.579 57.7412 185.851 58.0769C185.013 58.1829 184.175 58.2359 183.319 58.2359Z" fill="white"/>
<path d="M183.319 55.5858C181.572 55.5681 179.895 55.3561 178.219 54.8968C177.327 54.6494 174.51 54.1901 174.51 52.918C174.51 52.229 175.152 51.9817 175.723 52.07C176.365 52.176 177.114 52.6707 177.738 52.9004C178.629 53.2184 179.556 53.4304 180.502 53.5894C183.087 53.9958 187.028 54.2607 189.079 52.2467C190.916 50.4446 190.523 47.3705 190.291 45.0561C189.899 41.0103 189.453 36.9645 188.954 32.9364C188.722 31.046 188.473 29.1379 188.223 27.2476C188.116 26.5055 187.51 24.6681 188.758 24.4915C189.792 24.3501 189.828 25.5691 189.935 26.2758C190.238 28.3606 190.488 30.4453 190.737 32.53C191.201 36.3638 191.629 40.2153 192.003 44.0667C192.253 46.5402 192.61 49.2256 191.629 51.593C190.238 54.8791 186.564 55.5328 183.319 55.5858C179.877 55.6388 179.877 60.9389 183.319 60.8859C187.42 60.8329 191.789 59.9319 194.589 56.7165C196.996 53.9604 197.763 50.3209 197.585 46.7521C197.389 42.459 196.764 38.1659 196.265 33.9081C195.98 31.576 195.694 29.2616 195.374 26.9295C195.07 24.7211 194.928 22.6011 193.269 20.9403C190.434 18.1136 185.477 18.8379 183.48 22.2477C182.32 24.2088 182.731 26.1698 183.016 28.3075C183.373 31.0283 183.711 33.7667 184.032 36.4875C184.3 38.8549 184.567 41.24 184.799 43.6251C184.835 43.9077 185.102 48.7486 185.049 48.7309C184.977 48.7133 186.6 48.1302 184.835 48.4306C183.89 48.5896 182.784 48.5719 181.821 48.4482C179.664 48.1832 177.773 46.7698 175.598 46.7345C170.961 46.6285 167.609 51.6813 169.892 55.8154C172.192 59.9849 179.022 60.833 183.301 60.9036C186.761 60.939 186.761 55.6388 183.319 55.5858Z" fill="#0E0F0F"/>
<path d="M186.315 26.0461C187.26 32.9363 188.348 39.9503 188.669 46.8935C188.722 47.9712 188.758 49.1726 188.33 50.1973C187.866 51.3103 186.743 51.6637 185.637 51.8757C182.695 52.4234 179.449 51.8756 176.775 50.6213C175.473 50.0029 173.886 50.2679 173.119 51.5753C172.441 52.7237 172.762 54.5787 174.082 55.1971C180.359 58.1298 192.396 59.3136 193.858 50.162C194.482 46.2752 193.626 42.1234 193.198 38.2366C192.699 33.6961 192.128 29.1556 191.486 24.6328C191.29 23.2194 189.453 22.442 188.187 22.7777C186.636 23.2017 186.119 24.6151 186.315 26.0461Z" fill="white"/>
<path d="M175.776 26.3994C173.137 27.0885 170.498 28.2545 168.857 30.4983C167.074 32.954 167.359 36.1695 169.16 38.5192C172.923 43.3601 180.323 43.5014 185.441 40.9219C190.63 38.3072 193.876 32.3003 193.198 26.5761C192.841 23.4844 191.415 20.7282 188.74 18.9969C186.386 17.4775 183.373 17.0358 180.626 17.3715C174.421 18.1489 169.196 22.442 167.145 28.2722C166.664 29.6326 167.68 31.1696 169.018 31.5406C170.498 31.947 171.835 31.046 172.317 29.6856C173.369 26.6998 176.133 24.0674 179.182 23.078C182.106 22.124 186.208 22.2476 187.51 25.3924C188.865 28.6785 187.349 32.8127 184.639 35.1448C182.071 37.3532 177.738 38.0598 174.92 36.5404C174.153 36.1164 173.529 35.5864 173.173 35.0034C172.905 34.5441 173.458 35.5334 173.048 34.7384C173.03 34.6501 172.994 34.5617 172.976 34.4734C172.994 34.7207 172.994 34.6854 172.976 34.3497C172.976 34.2791 173.03 33.8374 172.976 34.2084C172.994 34.1024 173.262 33.484 173.066 33.855C173.048 33.8904 173.494 33.219 173.28 33.4664C173.173 33.6077 173.618 33.1307 173.69 33.06C174.046 32.7243 173.19 33.378 173.904 32.8834C174.136 32.7244 174.385 32.583 174.617 32.4417C175.384 32.0353 176.115 31.788 177.185 31.5053C180.537 30.6396 179.129 25.5337 175.776 26.3994Z" fill="white"/>
<path d="M202.613 43.8723C201.08 43.8723 199.653 42.8829 199.207 41.3636C198.12 37.7771 196.889 33.7313 197.05 29.4382L195.712 21.9119C195.373 19.9862 196.657 18.1488 198.601 17.8132C199.742 17.6188 200.866 17.9721 201.65 18.7142C202.667 17.7601 203.808 16.9828 205.074 16.4528C205.556 16.2407 207.018 15.6224 208.73 15.9404C210.263 16.2407 212.314 17.2831 213.419 20.6752C214.311 23.4137 214.686 26.2757 214.543 29.1555C214.454 31.0989 212.813 32.6183 210.816 32.5123C208.854 32.4239 207.339 30.7632 207.428 28.8198C207.517 27.0531 207.321 25.3041 206.857 23.608C205.27 24.8977 204.432 27.1061 204.236 29.0495L206.144 39.7382C206.465 41.5756 205.288 43.36 203.451 43.784C203.166 43.837 202.881 43.8723 202.613 43.8723Z" fill="white"/>
<path d="M202.613 41.2223C201.543 41.1693 201.454 39.6146 201.222 38.8195C200.723 37.1235 200.295 35.4274 199.992 33.696C199.617 31.5406 199.742 29.3852 199.368 27.2298C199.065 25.5161 198.762 23.8024 198.458 22.0886C198.423 21.8413 198.369 21.594 198.334 21.3466C198.334 21.2936 198.316 21.2583 198.316 21.2053C198.405 21.9826 198.316 21.1876 198.369 21.117C198.672 20.6753 199.118 20.0216 199.778 20.5693C200.919 21.5056 202.417 21.6116 203.558 20.5693C204.075 20.0923 204.61 19.6859 205.217 19.3325C205.538 19.1382 205.877 18.9792 206.233 18.8202C206.911 18.5198 205.609 18.9969 206.483 18.7319C207.303 18.4845 208.319 18.4845 208.837 18.6965C209.247 18.8732 209.817 19.3502 210.263 20.0392C211.048 21.2936 211.351 22.8837 211.618 24.3147C211.797 25.2511 212.867 30.2156 210.852 29.8446C210.031 29.6856 210.156 28.8905 210.156 28.2722C210.174 26.4524 209.924 24.6504 209.479 22.8837C208.961 20.8519 206.465 20.4456 205.003 21.7176C202.881 23.5727 201.24 26.9825 201.704 29.8269C201.918 31.1343 202.167 32.4417 202.399 33.749C202.72 35.5334 203.041 37.3178 203.362 39.1199C203.434 39.5439 203.541 39.9856 203.594 40.4096C203.523 39.7382 203.647 40.4979 203.523 40.6393C203.202 40.9749 203.113 41.187 202.613 41.2223C199.19 41.4167 199.172 46.7168 202.613 46.5225C206.679 46.2928 209.336 42.989 208.712 39.0139C208.516 37.7595 208.266 36.5228 208.052 35.2684C207.713 33.3603 207.374 31.4523 207.036 29.5442C206.964 29.1379 206.911 28.7138 206.822 28.3075C207.071 29.3852 206.982 28.6255 207.107 28.1132C207.196 27.7952 207.285 27.4772 207.428 27.1768C207.749 26.4701 208.177 25.9401 208.765 25.4278C207.267 25.0391 205.787 24.6504 204.289 24.2617C204.628 25.5868 204.789 26.8765 204.789 28.2369C204.789 29.4206 204.86 30.4806 205.377 31.5759C206.358 33.643 208.498 35.0564 210.834 35.1094C213.027 35.1624 215.149 34.0494 216.308 32.1943C217.61 30.1272 217.36 27.3711 217.093 25.0567C216.611 20.9756 215.47 16.0818 211.44 14.0324C207.339 11.9476 202.899 13.944 199.778 16.7885C201.044 16.7885 202.292 16.7885 203.558 16.7885C201.526 15.1277 198.976 14.5447 196.533 15.6931C194.553 16.6295 193.234 18.5729 193.037 20.7283C192.841 22.866 193.644 25.3041 194.018 27.3888C194.161 28.2368 194.428 29.1202 194.482 29.9859C194.5 30.3393 194.535 29.0495 194.393 30.4629C194.339 31.0459 194.446 31.7173 194.5 32.3003C194.624 33.643 194.838 35.0034 195.106 36.3284C195.57 38.5369 196.051 40.9926 197.05 43.0244C198.102 45.1974 200.259 46.3635 202.631 46.4871C206.055 46.7168 206.055 41.4167 202.613 41.2223Z" fill="#0E0F0F"/>
<path d="M196.64 22.0004C197.763 28.3429 198.904 34.7031 200.028 41.0457C201.739 40.5687 203.469 40.1093 205.181 39.6323C204.325 36.8232 203.416 33.9434 203.273 30.993C203.166 28.6963 203.487 26.7352 204.628 24.8095C205.092 24.0144 205.645 23.3431 206.322 22.7954C206.536 22.6187 207.143 22.2477 207.553 22.071C207.357 22.1593 207.838 22.1064 207.731 22.0004C207.481 22.018 207.285 21.9474 207.125 21.7884C207 21.6647 207.036 21.7177 207.25 21.912C207.107 21.541 207.392 22.2477 207.41 22.3007C207.267 21.965 207.464 22.5304 207.499 22.6187C207.713 23.2901 207.891 23.9791 208.034 24.6681C208.319 26.0815 208.373 27.5125 208.319 28.9436C208.266 30.3746 209.586 31.5937 210.994 31.5937C212.492 31.5937 213.616 30.3746 213.669 28.9436C213.74 26.9119 213.562 24.8625 213.116 22.8837C212.76 21.2407 212.242 19.4209 211.048 18.1666C208.141 15.1278 203.701 17.5129 201.472 20.1453C199.297 22.707 198.173 25.8695 197.959 29.1909C197.709 33.219 198.886 37.2119 200.045 41.028C200.456 42.406 201.918 43.2717 203.344 42.883C204.842 42.4767 205.466 41.0457 205.217 39.6146C204.093 33.2721 202.952 26.9119 201.829 20.5693C201.579 19.156 199.831 18.3609 198.53 18.7142C197.014 19.1383 196.39 20.587 196.64 22.0004Z" fill="white"/>
<path d="M240.06 43.3246C238.937 43.3246 237.814 42.7946 237.118 41.8052C236.583 41.0455 236.102 40.2682 235.656 39.4555C235.549 39.5438 235.46 39.6498 235.353 39.7381C232.143 42.6179 228.042 43.837 224.404 42.9889C221.872 42.4059 219.536 40.8159 217.824 38.5191C214.24 33.7137 214.257 26.7527 217.895 21.9826C221.533 17.1948 228.274 15.2514 233.926 17.3361C234.711 17.6188 235.317 18.1488 235.727 18.8025C235.745 18.8025 235.763 18.8025 235.781 18.8025C237.35 18.6258 238.848 19.4739 239.472 20.9049C240.97 24.3147 241.148 28.2014 240.185 31.7879C240.792 33.9256 241.737 35.975 243.003 37.7771C244.126 39.3848 243.716 41.5755 242.111 42.6886C241.469 43.1303 240.774 43.3246 240.06 43.3246ZM229.236 23.5903C227.097 23.5903 224.885 24.5797 223.619 26.2404C221.907 28.5018 221.89 32.0529 223.584 34.332C224.279 35.2683 225.189 35.922 226.062 36.1164C227.382 36.4167 229.147 35.7984 230.592 34.5087C231.519 33.6783 232.268 32.6183 232.785 31.4699C232.321 29.0671 232.179 26.6114 232.393 24.1733C232.09 24.138 231.769 24.085 231.465 23.9613C230.752 23.714 230.003 23.5903 229.236 23.5903Z" fill="white"/>
<path d="M240.06 40.6745C239.026 40.6215 238.384 38.8725 237.974 38.1305C237.1 36.5934 235.014 36.452 233.766 37.6004C231.555 39.6321 228.38 41.1339 225.313 40.4802C222.318 39.8442 219.91 37.5651 218.733 34.7913C216.362 29.2085 218.858 22.5833 224.475 20.1275C225.955 19.4915 227.578 19.1735 229.183 19.1558C230.253 19.1558 232.749 19.1735 233.427 20.1452C233.908 20.8518 234.782 21.5762 235.745 21.4526C237.368 21.2406 237.564 23.2193 237.849 24.562C238.295 26.682 238.099 28.7668 237.653 30.8515C237.172 33.1659 238.794 36.0457 239.953 37.9891C240.417 38.7488 241.879 40.5685 240.06 40.6745C236.637 40.8688 236.619 46.169 240.06 45.9747C243.484 45.7803 246.462 43.1479 246.284 39.5791C246.195 37.9007 245.41 36.7171 244.572 35.339C243.77 33.9963 243.181 32.5829 242.753 31.0989C242.753 31.5759 242.753 32.0352 242.753 32.5122C243.645 29.0318 243.716 25.3394 242.664 21.8942C241.719 18.8025 239.418 15.7107 235.727 16.1877C236.494 16.6294 237.261 17.0711 238.045 17.4951C235.353 13.5906 229.415 13.3609 225.171 14.368C220.855 15.3927 216.968 18.1664 214.739 21.9649C209.907 30.1802 213.277 41.9289 222.585 45.2504C227.881 47.1408 233.605 45.003 237.564 41.3812C236.155 41.2046 234.764 41.0279 233.356 40.8512C234.907 43.6073 236.655 45.8511 240.06 46.0277C243.502 46.1691 243.502 40.8512 240.06 40.6745Z" fill="#0E0F0F"/>
<path d="M229.236 20.9402C226.098 20.9755 223.174 22.3889 221.301 24.8976C219.661 27.0884 219.304 30.1625 219.946 32.7773C220.695 35.7984 223.12 38.5015 226.348 38.8195C229.433 39.1375 232.286 36.9291 234.015 34.6146C234.515 33.961 234.889 33.2366 235.21 32.4946C235.549 31.6996 235.371 30.9752 235.228 30.1625C235.192 29.9682 235.157 29.7562 235.139 29.5618C235.21 30.0388 235.121 29.4558 235.103 29.2968C234.925 27.6008 234.907 25.887 235.032 24.1733C235.085 23.5549 234.711 22.7069 234.247 22.3005C233.694 21.7882 233.106 21.6115 232.357 21.5232C232.999 21.5938 232.072 21.3819 231.929 21.3289C231.715 21.2582 231.501 21.2052 231.287 21.1522C230.627 21.0285 229.932 20.9402 229.236 20.9402C227.846 20.9225 226.49 22.1769 226.562 23.5903C226.633 25.039 227.739 26.2227 229.236 26.2404C229.397 26.2404 229.54 26.2404 229.682 26.2581C230.003 26.2934 229.985 26.2757 229.647 26.2404C229.843 26.2227 230.128 26.3287 230.306 26.3817C231.002 26.576 231.626 26.735 232.357 26.8234C231.465 25.94 230.574 25.0566 229.682 24.1733C229.468 26.8587 229.682 29.5265 230.182 32.1765C230.271 31.4875 230.36 30.8162 230.449 30.1272C230.217 30.6395 229.95 31.1342 229.629 31.5936C229.557 31.7172 229.468 31.8232 229.379 31.9292C229.575 31.6642 229.593 31.6466 229.397 31.8762C229.201 32.0706 229.022 32.2826 228.826 32.4769C228.719 32.5653 228.612 32.6713 228.505 32.7596C228.273 32.9539 228.291 32.9362 228.559 32.7242C228.398 32.9009 228.077 33.0422 227.881 33.1659C227.774 33.2366 227.649 33.2896 227.525 33.3426C227.257 33.4663 227.293 33.4486 227.632 33.3073C227.542 33.431 227.079 33.4663 226.936 33.5193C226.633 33.5723 226.704 33.5723 227.132 33.5016C227.025 33.5193 226.918 33.5193 226.811 33.5193C226.704 33.5193 226.597 33.5193 226.49 33.5193C226.936 33.59 227.025 33.6076 226.74 33.537C226.651 33.5193 226.579 33.5016 226.49 33.4663C226.294 33.3956 226.383 33.4309 226.722 33.5723C226.651 33.6076 226.134 33.2366 226.08 33.1836C226.544 33.6959 225.973 33.0246 225.866 32.9186C225.67 32.6889 225.67 32.7066 225.866 32.9539C225.795 32.8656 225.724 32.7596 225.67 32.6712C225.545 32.4769 225.438 32.2649 225.313 32.0529C225.189 31.7879 225.206 31.8409 225.367 32.1942C225.331 32.0882 225.278 31.9646 225.242 31.8586C225.171 31.6289 225.099 31.3992 225.046 31.1696C225.028 31.0459 224.992 30.9399 224.975 30.8162C225.028 31.2225 225.028 31.2755 224.992 30.9752C224.992 30.8162 224.85 29.5795 224.992 29.5265C224.939 29.9328 224.921 29.9859 224.975 29.6855C224.992 29.5618 225.028 29.4558 225.046 29.3321C225.082 29.1555 225.135 28.9788 225.189 28.8021C225.224 28.6961 225.26 28.5725 225.313 28.4665C225.42 28.2015 225.403 28.2368 225.26 28.6078C225.224 28.5371 225.563 28.0601 225.599 27.9894C225.67 27.8834 225.724 27.7951 225.795 27.6891C225.563 27.9894 225.527 28.0071 225.724 27.7951C225.902 27.6184 226.062 27.4241 226.258 27.2474C226.348 27.1591 226.455 27.0707 226.562 27C226.276 27.2121 226.258 27.2474 226.49 27.0707C226.722 26.9471 226.936 26.8057 227.168 26.6821C227.293 26.629 227.4 26.5584 227.525 26.5054C227.186 26.6467 227.15 26.6644 227.435 26.5584C227.685 26.4877 227.935 26.3994 228.184 26.3287C228.309 26.2933 228.434 26.2757 228.577 26.2404C228.88 26.1874 228.826 26.1874 228.452 26.2404C228.648 26.152 229.022 26.2051 229.236 26.2051C230.627 26.1874 231.983 25.0037 231.911 23.555C231.84 22.1592 230.734 20.9048 229.236 20.9402Z" fill="#0E0F0F"/>
<path d="M233.409 18.0959C229.147 16.5942 224.297 17.6013 220.784 20.3397C217.093 23.2371 215.577 27.9719 216.273 32.4948C216.968 36.9999 220.41 41.4521 225.135 42.2118C230.199 43.0244 234.978 39.8973 237.546 35.7278C240.096 31.5937 240.685 26.0992 238.777 21.6117C238.313 20.5164 237.493 19.6683 236.191 19.6683C235.103 19.6683 233.801 20.481 233.605 21.6117C232.446 28.3783 233.801 35.4275 237.742 41.134C238.563 42.3177 240.096 42.8478 241.398 42.0881C242.575 41.399 243.181 39.65 242.361 38.4662C239.204 33.9081 237.867 28.2723 238.777 23.0251C237.065 23.0251 235.335 23.0251 233.623 23.0251C234.889 26.0109 234.889 28.5726 233.694 31.6114C233.534 32.0354 233.837 31.3287 233.641 31.735C233.57 31.894 233.48 32.0707 233.391 32.2297C233.195 32.6007 232.999 32.9541 232.767 33.2898C232.678 33.4134 232.179 34.1201 232.393 33.8551C232.107 34.2085 231.804 34.5442 231.465 34.8622C230.324 35.9929 229.04 36.7525 227.418 37.0352C226.294 37.2295 224.885 36.7879 223.994 36.0635C222.746 35.0388 222.068 33.8551 221.694 32.4594C221.337 31.205 221.319 29.6327 221.604 28.4666C221.801 27.6186 221.997 27.1592 222.282 26.6292C222.746 25.7812 222.835 25.6399 223.512 24.9685C223.637 24.8448 223.78 24.7212 223.905 24.5975C223.905 24.5975 224.547 24.1028 224.208 24.3501C224.582 24.0851 224.957 23.8555 225.349 23.6435C225.51 23.5551 225.67 23.4844 225.831 23.3961C226.526 23.0604 225.456 23.4844 226.187 23.2548C226.615 23.1134 227.043 22.9721 227.489 22.8838C228.933 22.5481 230.271 22.6364 231.929 23.2195C233.284 23.6965 234.853 22.6717 235.228 21.3644C235.674 19.898 234.764 18.5729 233.409 18.0959Z" fill="white"/>
<path d="M47.6175 47.8476C46.0127 47.8476 44.5504 46.7698 44.1581 45.1621L39.5396 26.5939C39.076 24.7035 40.2351 22.7777 42.1431 22.3184C43.534 21.9827 44.9249 22.495 45.7808 23.5374C46.4941 22.177 47.3679 20.9403 48.3665 19.845C49.0976 19.0499 50.2567 17.9722 52.022 17.6896C53.8587 17.4069 56.1769 18.0782 57.7818 20.6046C58.9052 19.0676 60.4209 18.0782 62.2397 17.7602C65.2534 17.1949 68.4631 18.7849 70.2285 21.6823C71.5124 23.7847 71.8334 26.0815 72.1008 27.9189L74.1693 42.459C74.4368 44.3847 73.0816 46.1692 71.1379 46.4518C69.1764 46.7168 67.3932 45.3741 67.1079 43.4484L65.0394 28.9083C64.8432 27.5832 64.6649 26.2051 64.13 25.3394C63.9516 25.0391 63.702 24.8448 63.5593 24.7741C63.3453 25.0568 62.8639 25.9578 62.6677 27.8482C62.2219 32.3534 62.2041 36.9292 62.6142 41.4343C62.7926 43.3601 61.3838 45.0561 59.458 45.2681C57.5321 45.4801 55.7846 44.1198 55.5349 42.2117C54.8395 36.8585 54.1262 31.3286 52.4857 26.2228C51.0948 28.5019 50.5955 31.1343 50.4528 33.113C50.1675 36.5935 50.7025 40.286 51.2018 43.8547C51.4693 45.7098 50.2032 47.4588 48.3486 47.8122C48.0812 47.8299 47.8493 47.8476 47.6175 47.8476Z" fill="white"/>
<path d="M47.6175 45.1974C46.4406 45.1267 46.2801 42.6356 46.084 41.8053C45.4599 39.3142 44.8536 36.8408 44.2295 34.3497C43.6588 32.053 43.0882 29.7562 42.5176 27.4595C42.4106 27.0002 42.1609 26.4348 42.1431 25.9578C42.1075 24.7917 43.1595 24.6327 43.8906 25.3924C45.0497 26.6115 47.2966 26.3288 48.099 24.8624C49.5434 22.2123 52.7532 17.9899 55.4815 21.9297C56.3374 23.1664 58.5486 23.9084 59.6898 22.4596C61.473 20.1982 64.1835 19.5269 66.5551 21.4173C68.7485 23.1663 69.1586 26.0991 69.5331 28.6785C69.9789 31.841 70.4247 35.0034 70.8705 38.1658C71.0845 39.6499 71.352 41.1516 71.5124 42.6533C71.5303 42.777 71.5659 42.9183 71.5659 43.0243C71.5659 43.0597 71.6907 42.9183 71.4589 43.201C70.9596 43.8547 70.1929 44.0314 69.7827 43.148C69.4083 42.3353 69.4618 41.0633 69.3369 40.2152C69.0695 38.2718 68.7841 36.3461 68.5166 34.4027C67.9995 30.7103 68.1065 24.7741 64.9146 22.4243C63.6842 21.5233 62.008 22.3007 61.259 23.3784C59.6363 25.6751 59.8146 29.3146 59.7076 31.9823C59.6363 33.9257 59.6363 35.8691 59.7076 37.8125C59.7433 38.7842 59.8146 39.7559 59.886 40.7276C59.9216 41.2576 60.1178 41.8759 59.7076 42.3C59.1548 42.8653 58.4951 42.4766 58.2097 41.8936C57.8709 41.2399 57.9423 40.0916 57.8531 39.3319C57.7283 38.3778 57.5856 37.4061 57.4608 36.4521C56.908 32.7243 56.2126 29.0319 55.0713 25.4454C54.3937 23.3253 51.3444 22.7777 50.1853 24.8094C48.206 28.2722 47.5819 32.212 47.7245 36.1517C47.7958 38.1835 48.0455 40.2152 48.313 42.2293C48.3843 43.201 49.0084 45.1267 47.6175 45.1974C44.1938 45.3564 44.176 50.6566 47.6175 50.4976C49.7039 50.3916 51.6654 49.4728 52.8245 47.7061C54.1797 45.6567 53.7696 43.572 53.4664 41.2929C52.878 36.7348 52.3609 31.6996 54.7325 27.5478C53.1098 27.3358 51.4692 27.1238 49.8465 26.9118C51.2374 31.2756 51.9685 35.7984 52.5748 40.3212C52.8601 42.4413 52.985 44.4907 54.5899 46.0808C56.0877 47.5648 58.2989 48.2008 60.3674 47.7591C62.2933 47.3351 63.916 46.0101 64.7184 44.2257C65.6279 42.1939 65.1108 39.9856 65.0216 37.8478C64.9146 35.4804 64.9324 33.0954 65.0751 30.728C65.1642 29.2616 65.2356 26.9471 65.824 26.0991C64.6114 26.4171 63.381 26.7351 62.1685 27.0531C61.5443 26.5938 62.115 27.6892 62.1506 27.9189C62.2576 28.3782 62.3111 28.8552 62.3824 29.3145C62.4003 29.4912 62.4359 29.6679 62.4538 29.8446C62.5429 30.4983 62.6321 31.1519 62.7391 31.8056C63.06 34.0494 63.381 36.2931 63.6842 38.5368C63.9338 40.2859 64.1478 42.0526 64.4331 43.8017C64.9146 46.7874 67.4646 49.1725 70.603 49.1372C74.6509 49.1018 77.2187 45.5331 76.7015 41.7523C76.5054 40.3566 76.3092 38.9785 76.1131 37.5828C75.5959 33.9787 75.1145 30.3569 74.5795 26.7528C73.9376 22.4067 72.0474 18.0076 67.8034 16.0465C63.6307 14.1031 58.7269 15.1101 55.8738 18.7496C57.2825 18.9262 58.6734 19.1029 60.0821 19.2796C58.0136 16.2938 54.786 14.3858 51.0413 15.1984C47.5105 15.9758 45.1032 19.2266 43.4627 22.1946C44.8714 22.018 46.2623 21.8413 47.671 21.6647C44.2829 18.0605 37.9169 19.5269 36.9005 24.4914C36.526 26.3288 37.1858 28.1839 37.6138 29.9506C38.8263 34.8267 40.0389 39.7029 41.2515 44.579C42.0718 47.8475 43.9441 50.2502 47.6175 50.4976C51.0591 50.7273 51.0413 45.4271 47.6175 45.1974Z" fill="#0E0F0F"/>
<path d="M42.9991 25.7458C44.5326 31.9293 46.084 38.1305 47.6175 44.314C47.0826 40.4979 46.5298 36.6464 46.8508 32.795C47.1539 28.9435 48.3843 25.0744 51.0056 22.2123C51.4336 21.7353 51.9507 21.2759 52.5748 21.1876C53.9657 20.9756 54.9287 22.5126 55.3923 23.8377C57.4608 29.5795 58.2454 35.6924 59.03 41.7346C58.5842 36.9997 58.6021 32.212 59.0835 27.4772C59.351 24.8801 60.2783 21.6999 62.8639 21.2406C64.5579 20.9226 66.252 22.0533 67.1436 23.5197C68.0352 24.986 68.2848 26.7175 68.5345 28.4135C69.2299 33.2543 69.9075 38.1128 70.603 42.9536" fill="#0E0F0F"/>
<path d="M40.4312 26.4524C41.9648 32.636 43.5162 38.8372 45.0497 45.0207C45.3885 46.4164 46.9756 47.2468 48.3487 46.8757C49.8822 46.4517 50.4172 45.0383 50.221 43.6073C49.7039 39.8972 49.2046 36.1164 49.5791 32.3533C49.9 29.1908 51.0769 26.6291 52.9136 24.085C53.2525 23.608 53.306 23.979 52.8958 23.7493C52.6283 23.82 52.4143 23.767 52.2182 23.555C52.3074 23.6434 52.3787 23.714 52.4678 23.8023C52.7353 24.3854 52.9671 24.88 53.1811 25.4984C53.7696 27.2651 54.251 29.0672 54.6434 30.8869C55.428 34.4734 55.9272 38.0951 56.3909 41.7346C56.5692 43.148 57.4965 44.3847 59.0657 44.3847C60.4209 44.3847 61.8653 43.1656 61.7405 41.7346C61.3838 37.7771 61.3303 33.802 61.5978 29.8446C61.7048 28.3428 61.7583 26.8234 62.2576 25.3924C62.4716 24.774 62.8996 23.9083 63.2919 23.8377C65.9132 23.3606 66.1093 29.8799 66.3055 31.2579C66.8939 35.3921 67.4824 39.5085 68.053 43.6427C68.2492 45.056 70.0859 45.8334 71.3519 45.4977C72.8855 45.0737 73.4205 43.6603 73.2243 42.2293C72.511 37.2294 71.8512 32.212 71.1023 27.2298C70.4782 23.025 67.9995 18.0782 62.9174 18.5729C58.5486 18.9969 56.9258 23.396 56.4979 27.1238C55.9272 31.9646 55.9808 36.8761 56.4087 41.7169C58.1919 41.7169 59.9751 41.7169 61.7583 41.7169C61.1164 36.7878 60.5101 31.8056 59.2262 27.0001C58.2811 23.4667 56.1234 16.3644 50.8986 18.9968C49.0263 19.9332 47.6532 21.9826 46.7081 23.7847C45.6917 25.6927 44.9784 27.7775 44.6039 29.8976C43.6945 34.9504 44.3899 40.0032 45.1032 45.0383C46.8151 44.5613 48.5448 44.102 50.2567 43.625C48.7231 37.4415 47.1717 31.2402 45.6382 25.0567C44.7644 21.7353 39.5931 23.131 40.4312 26.4524Z" fill="white"/>
<path d="M253.738 45.5684C252.133 45.5684 250.67 44.4907 250.278 42.8829L245.66 24.3147C245.196 22.4243 246.355 20.4985 248.263 20.0392C249.654 19.7035 251.045 20.2159 251.901 21.2582C252.614 19.8979 253.488 18.6612 254.487 17.5658C255.218 16.7708 256.377 15.6931 258.142 15.4104C259.979 15.1277 262.297 15.799 263.902 18.3255C265.025 16.7884 266.541 15.7991 268.36 15.4811C271.373 14.9157 274.583 16.5058 276.349 19.4032C277.632 21.5056 277.953 23.8023 278.221 25.6397L280.289 40.1798C280.557 42.1056 279.202 43.89 277.258 44.1727C275.296 44.4377 273.513 43.095 273.228 41.1693L271.159 26.6291C270.963 25.304 270.785 23.926 270.25 23.0603C270.072 22.76 269.822 22.5656 269.679 22.495C269.465 22.7776 268.984 23.6787 268.788 25.569C268.342 30.0742 268.324 34.65 268.734 39.1552C268.913 41.0809 267.504 42.777 265.578 42.989C263.652 43.201 261.905 41.8406 261.655 39.9325C260.96 34.5794 260.246 29.0495 258.606 23.9437C257.215 26.2228 256.716 28.8552 256.573 30.8339C256.288 34.3144 256.823 38.0068 257.322 41.5756C257.589 43.4306 256.323 45.1797 254.469 45.533C254.201 45.5507 253.969 45.5684 253.738 45.5684Z" fill="white"/>
<path d="M253.738 42.9183C252.561 42.8476 252.4 40.3565 252.204 39.5261C251.58 37.0351 250.974 34.5616 250.349 32.0706C249.779 29.7738 249.208 27.4771 248.638 25.1803C248.531 24.721 248.281 24.1556 248.263 23.6786C248.227 22.5126 249.28 22.3536 250.011 23.1133C251.17 24.3323 253.417 24.0496 254.219 22.5833C255.663 19.9332 258.873 15.7107 261.601 19.6505C262.457 20.8872 264.669 21.6293 265.81 20.1805C267.593 17.9191 270.303 17.2478 272.675 19.1382C274.868 20.8872 275.279 23.82 275.653 26.3994C276.099 29.5618 276.545 32.7243 276.99 35.8867C277.204 37.3707 277.472 38.8725 277.632 40.3742C277.65 40.4979 277.686 40.6392 277.686 40.7452C277.686 40.7805 277.811 40.6392 277.579 40.9219C277.08 41.5756 276.313 41.7522 275.903 40.8689C275.528 40.0562 275.582 38.7841 275.457 37.9361C275.189 35.9927 274.904 34.067 274.637 32.1236C274.12 28.4311 274.227 22.4949 271.035 20.1452C269.804 19.2441 268.128 20.0215 267.379 21.0992C265.756 23.396 265.935 27.0354 265.828 29.7032C265.756 31.6466 265.756 33.59 265.828 35.5334C265.863 36.5051 265.935 37.4768 266.006 38.4485C266.042 38.9785 266.238 39.5968 265.828 40.0208C265.275 40.5862 264.615 40.1975 264.33 39.6145C263.991 38.9608 264.062 37.8124 263.973 37.0527C263.848 36.0987 263.706 35.127 263.581 34.173C263.028 30.4452 262.333 26.7528 261.191 23.1663C260.514 21.0462 257.464 20.4985 256.305 22.5303C254.326 25.993 253.702 29.9329 253.845 33.8727C253.916 35.9044 254.166 37.9361 254.433 39.9502C254.504 40.9219 255.128 42.8476 253.738 42.9183C250.314 43.0773 250.296 48.3775 253.738 48.2185C255.824 48.1124 257.785 47.1937 258.945 45.427C260.3 43.3776 259.89 41.2929 259.586 39.0138C258.998 34.4557 258.481 29.4205 260.853 25.2687C259.23 25.0567 257.589 24.8447 255.967 24.6327C257.357 28.9965 258.089 33.5193 258.695 38.0421C258.98 40.1622 259.105 42.2116 260.71 43.8016C262.208 45.2857 264.419 45.9217 266.487 45.48C268.413 45.056 270.036 43.7309 270.838 41.9465C271.748 39.9148 271.231 37.7064 271.142 35.5687C271.035 33.2013 271.052 30.8162 271.195 28.4488C271.284 26.9824 271.356 24.668 271.944 23.82C270.731 24.138 269.501 24.456 268.288 24.774C267.664 24.3146 268.235 25.41 268.271 25.6397C268.378 26.0991 268.431 26.5761 268.502 27.0354C268.52 27.2121 268.556 27.3888 268.574 27.5654C268.663 28.2191 268.752 28.8728 268.859 29.5265C269.18 31.7702 269.501 34.014 269.804 36.2577C270.054 38.0067 270.268 39.7735 270.553 41.5225C271.035 44.5083 273.585 46.8934 276.723 46.858C280.771 46.8227 283.339 43.2539 282.822 39.4731C282.625 38.0774 282.429 36.6994 282.233 35.3037C281.716 31.6996 281.234 28.0778 280.699 24.4737C280.058 20.1275 278.167 15.7284 273.923 13.7673C269.751 11.8239 264.847 12.831 261.994 16.4704C263.402 16.6471 264.793 16.8237 266.202 17.0004C264.134 14.0146 260.906 12.1066 257.161 12.9193C253.631 13.6966 251.223 16.9474 249.583 19.9155C250.991 19.7388 252.382 19.5622 253.791 19.3855C250.403 15.7814 244.037 17.2478 243.021 22.2123C242.646 24.0497 243.306 25.9047 243.734 27.6714C244.946 32.5476 246.159 37.4238 247.372 42.2999C248.192 45.5684 250.064 47.9711 253.738 48.2185C257.179 48.4481 257.161 43.148 253.738 42.9183Z" fill="#0E0F0F"/>
<path d="M249.119 23.4667C250.653 29.6502 252.204 35.8514 253.738 42.035C253.203 38.2188 252.65 34.3673 252.971 30.5159C253.274 26.6644 254.504 22.7953 257.126 19.9332C257.554 19.4562 258.071 18.9969 258.695 18.9085C260.086 18.6965 261.049 20.2336 261.512 21.5586C263.581 27.3005 264.365 33.4134 265.15 39.4556C264.704 34.7207 264.722 29.9329 265.204 25.1981C265.471 22.601 266.398 19.4209 268.984 18.9615C270.678 18.6435 272.372 19.7742 273.264 21.2406C274.155 22.7069 274.405 24.4384 274.655 26.1344C275.35 30.9753 276.028 35.8337 276.723 40.6745" fill="#0E0F0F"/>
<path d="M246.551 24.1734C248.085 30.3569 249.636 36.5581 251.17 42.7417C251.509 44.1374 253.096 44.9677 254.469 44.5967C256.002 44.1727 256.537 42.7593 256.341 41.3283C255.824 37.6182 255.325 33.8373 255.699 30.0742C256.02 26.9118 257.197 24.3501 259.034 21.806C259.372 21.329 259.426 21.7 259.016 21.4703C258.748 21.541 258.534 21.488 258.338 21.276C258.427 21.3643 258.499 21.435 258.588 21.5233C258.855 22.1063 259.087 22.601 259.301 23.2194C259.89 24.9861 260.371 26.7881 260.763 28.6079C261.548 32.1943 262.047 35.8161 262.511 39.4556C262.689 40.869 263.617 42.1057 265.186 42.1057C266.541 42.1057 267.985 40.8866 267.861 39.4556C267.504 35.4981 267.45 31.523 267.718 27.5655C267.825 26.0638 267.878 24.5444 268.378 23.1134C268.592 22.495 269.02 21.6293 269.412 21.5587C272.033 21.0816 272.229 27.6008 272.426 28.9789C273.014 33.113 273.602 37.2295 274.173 41.3636C274.369 42.777 276.206 43.5543 277.472 43.2187C279.005 42.7946 279.54 41.3813 279.344 39.9503C278.631 34.9504 277.971 29.9329 277.222 24.9507C276.598 20.7459 274.12 15.7991 269.037 16.2938C264.669 16.7178 263.046 21.117 262.618 24.8447C262.047 29.6856 262.101 34.5971 262.529 39.4379C264.312 39.4379 266.095 39.4379 267.878 39.4379C267.236 34.5087 266.63 29.5265 265.346 24.7211C264.401 21.1876 262.243 14.0854 257.019 16.7178C255.146 17.6542 253.773 19.7036 252.828 21.5057C251.812 23.4137 251.098 25.4984 250.724 27.6185C249.815 32.6713 250.51 37.7242 251.223 42.7593C252.935 42.2823 254.665 41.8229 256.377 41.3459C254.843 35.1624 253.292 28.9612 251.758 22.7777C250.884 19.4563 245.731 20.8519 246.551 24.1734Z" fill="white"/>
<path d="M152.22 44.844C151.221 44.844 150.223 44.7557 149.224 44.5613C143.34 43.4306 138.543 38.8901 137.295 33.2543C135.993 27.3358 139.007 20.8519 144.338 18.1841C147.191 16.7531 150.704 16.5941 153.736 17.7425C156.339 18.7318 158.301 20.6045 159.228 23.0073C159.906 24.7387 159.888 26.417 159.174 27.8658C157.926 30.4275 155.144 31.0105 154.11 31.2402L145.301 33.1129C145.123 33.1483 144.945 33.1836 144.766 33.1836C145.836 35.3743 148.083 37.1411 150.579 37.6181C153.647 38.2011 157.124 37.0351 159.406 34.6147C160.762 33.1836 163.008 33.1306 164.453 34.4557C165.879 35.7984 165.951 38.0245 164.613 39.4555C161.35 42.9006 156.803 44.844 152.22 44.844ZM149.545 24.0497C148.832 24.0497 148.137 24.191 147.548 24.4914C146.942 24.7917 146.389 25.2334 145.925 25.7457L151.614 24.5444C151.471 24.456 151.311 24.403 151.186 24.35C150.687 24.138 150.116 24.0497 149.545 24.0497Z" fill="white"/>
<path d="M152.22 42.194C147.263 42.1234 142.644 39.3496 140.594 34.8091C138.739 30.728 139.755 25.6928 142.894 22.5127C146.211 19.1382 152.541 18.3432 155.786 22.3184C157.035 23.8554 157.748 26.3818 155.929 27.7422C155.127 28.3429 154.075 28.5549 152.933 28.7846C151.275 29.1379 149.617 29.4913 147.958 29.8446C147.138 30.0213 146.335 30.1979 145.515 30.3569C145.39 30.3923 144.356 30.569 144.766 30.5336C142.716 30.728 141.467 32.6184 142.448 34.5264C146.068 41.505 155.394 42.0174 160.851 36.9468C161.368 36.4698 162.117 35.6748 162.741 36.5582C163.383 37.4945 161.885 38.4486 161.261 38.9609C158.729 41.028 155.501 42.141 152.22 42.194C148.778 42.247 148.778 47.5472 152.22 47.4942C156.464 47.4412 160.601 46.0808 163.989 43.5191C165.737 42.2117 167.484 40.71 168.055 38.5369C168.625 36.3638 167.859 33.9611 166.182 32.477C164.542 31.0283 162.206 30.4806 160.102 31.1697C158.14 31.8057 157.053 33.5371 155.251 34.4204C152.149 35.9222 148.671 34.9328 147.067 31.8587C146.3 33.1837 145.533 34.5088 144.748 35.8515C148.047 35.5335 151.364 34.5441 154.609 33.8551C156.803 33.3781 158.96 32.4947 160.441 30.7456C163.044 27.6538 162.848 23.2547 160.637 20.0039C156.375 13.6791 147.049 12.672 141.039 17.1242C135.654 21.117 133.051 28.2545 134.869 34.7208C137.009 42.353 144.338 47.3882 152.184 47.5119C155.679 47.5472 155.679 42.247 152.22 42.194Z" fill="#0E0F0F"/>
<path d="M149.545 21.3997C147.423 21.4174 145.462 22.3184 144.035 23.8731C143.625 24.3148 143.375 24.8095 143.304 25.3925C143.233 25.9578 143.304 26.5939 143.625 27.0886C143.875 27.4773 144.196 27.7952 144.588 28.0426C145.194 28.4313 145.979 28.4489 146.656 28.3076C148.315 27.9542 149.973 27.6009 151.632 27.2476C151.863 27.1946 152.113 27.1416 152.345 27.0886C152.559 27.0003 152.773 26.9119 152.987 26.8235C153.165 26.6822 153.343 26.5409 153.522 26.4172C153.932 26.0109 154.182 25.4632 154.253 24.8978C154.396 23.8908 153.914 22.7601 152.969 22.2654C151.917 21.6824 150.758 21.4174 149.545 21.3997C148.868 21.3997 148.137 21.7001 147.655 22.1771C147.191 22.6364 146.835 23.3961 146.87 24.0498C146.906 24.7388 147.12 25.4455 147.655 25.9225C148.19 26.3996 148.814 26.6999 149.545 26.6999C149.759 26.6999 149.973 26.7176 150.187 26.7352C149.955 26.6999 149.706 26.6646 149.474 26.6469C149.848 26.6999 150.205 26.7882 150.562 26.9295C150.348 26.8412 150.134 26.7529 149.92 26.6645C150.045 26.7175 150.152 26.7705 150.276 26.8235C150.49 25.2158 150.704 23.5904 150.918 21.9827C149.26 22.3361 147.602 22.6894 145.943 23.0428C145.711 23.0958 145.462 23.1488 145.23 23.2018C146.104 24.6858 146.96 26.1522 147.833 27.6363C148.065 27.3713 148.315 27.1415 148.6 26.9295C148.422 27.0709 148.244 27.2122 148.065 27.3359C148.404 27.0709 148.778 26.8412 149.189 26.6645C148.975 26.7529 148.761 26.8412 148.547 26.9295C148.885 26.8059 149.224 26.7175 149.581 26.6645C149.349 26.6999 149.099 26.7352 148.868 26.7529C149.099 26.7176 149.331 26.6999 149.563 26.6999C150.259 26.6999 150.972 26.4172 151.453 25.9225C151.917 25.4632 152.274 24.7035 152.238 24.0498C152.167 22.6188 151.043 21.3821 149.545 21.3997Z" fill="#0E0F0F"/>
<path d="M144.534 29.8977C147.441 29.1734 150.366 28.4313 153.272 27.7069C154.271 27.4596 155.412 27.1063 155.822 26.1523C156.107 25.5162 155.965 24.7565 155.679 24.1029C154.146 20.5517 149.028 19.6507 145.604 21.5234C141.717 23.6611 139.755 28.608 140.861 32.8658C141.967 37.1236 145.907 40.445 150.312 41.1164C154.699 41.7877 159.335 39.9327 162.259 36.6112" fill="#0E0F0F"/>
<path d="M145.248 32.4594C148.333 31.682 151.489 31.046 154.538 30.1097C155.911 29.6857 157.249 28.9967 157.998 27.7423C158.978 26.1169 158.711 24.1558 157.873 22.5481C155.537 17.9723 149.367 16.9829 144.98 18.9263C140.273 20.9934 137.473 26.4703 137.937 31.4524C138.436 36.8232 142.252 41.2047 147.263 43.0774C153.129 45.2858 160.048 43.0598 164.15 38.5193C165.113 37.4593 165.22 35.8162 164.15 34.7738C163.169 33.8021 161.332 33.6961 160.369 34.7738C159.175 36.0988 157.694 37.2119 156.125 37.8302C154.413 38.5193 152.719 38.7843 150.99 38.5723C147.923 38.2189 144.909 35.9399 143.821 33.3074C142.609 30.3747 143.304 27.0709 145.515 24.8978C145.854 24.5622 145.979 24.4562 146.211 24.2972C146.532 24.0852 146.853 23.8908 147.191 23.7142C147.673 23.4668 147.405 23.6258 147.281 23.6612C147.495 23.5728 147.709 23.5198 147.923 23.4491C148.136 23.3961 148.35 23.3431 148.582 23.2901C149.046 23.1841 148.529 23.2725 148.814 23.2548C149.224 23.2371 149.617 23.2371 150.027 23.2371C150.544 23.2371 150.259 23.2548 150.116 23.2371C150.294 23.2548 150.472 23.3078 150.633 23.3431C150.847 23.3961 151.061 23.4668 151.275 23.5198C151.382 23.5551 151.899 23.7672 151.489 23.5905C151.649 23.6612 151.792 23.7495 151.953 23.8202C152.042 23.8732 152.648 24.2618 152.256 23.9792C152.38 24.0852 152.523 24.2088 152.63 24.3148C152.666 24.3502 153.147 24.9332 152.862 24.5445C152.987 24.7035 153.45 25.3749 153.326 25.4809C153.272 25.5339 153.379 25.0392 153.379 25.0568C153.433 24.6682 153.754 25.0215 153.29 24.9508C153.486 24.9862 153.254 24.9509 153.112 24.9862C152.791 25.0745 152.47 25.1629 152.167 25.2335C149.385 25.9402 146.603 26.6292 143.821 27.3359C140.487 28.1839 141.895 33.2898 145.248 32.4594Z" fill="white"/>
</svg>
